<svg width="187" height="26" viewBox="0 0 187 26" fill="none" xmlns="http://www.w3.org/2000/svg">
<path d="M22.2593 8.68842L23.1576 9.62377C25.0704 11.6156 25.0084 14.7827 23.019 16.6978L16.2783 23.1872C14.289 25.1023 11.1257 25.0402 9.21291 23.0485L2.73142 16.2995C0.818617 14.3078 0.880637 11.1407 2.86996 9.22547L9.61071 2.73616C11.6 0.821039 14.7633 0.883139 16.6761 2.87487L17.4667 3.69812" stroke="#714EFF" stroke-width="2.4" stroke-linecap="round"/>
<path d="M17.535 17.3116L16.6367 16.3762C14.7239 14.3844 14.7859 11.2173 16.7752 9.30218L23.5159 2.81282C25.5052 0.897693 28.6685 0.959803 30.5813 2.95153L37.0628 9.70048C38.9756 11.6922 38.9136 14.8593 36.9243 16.7745L30.1836 23.2638C28.1942 25.1789 25.031 25.1168 23.1181 23.1251L22.3275 22.3019" stroke="#B9C0DA" stroke-width="2.4" stroke-linecap="round"/>
<path d="M46.2891 5.49902H52.208C56.8594 5.49902 59.5986 8.27051 59.5986 13.1904C59.5986 18.1104 56.8594 21 52.208 21H46.2891V5.49902ZM49.5332 8.17383V18.3145H51.8213C54.7217 18.3145 56.29 16.5527 56.29 13.2012C56.29 9.95703 54.6787 8.17383 51.8213 8.17383H49.5332ZM67.9118 11.5576C66.5368 11.5576 65.5485 12.5996 65.4411 14.0391H70.3288C70.2643 12.5674 69.3083 11.5576 67.9118 11.5576ZM70.3718 17.4766H73.2507C72.9069 19.7324 70.8444 21.2471 67.9977 21.2471C64.4528 21.2471 62.3259 18.9805 62.3259 15.2959C62.3259 11.6221 64.4743 9.2373 67.8796 9.2373C71.2311 9.2373 73.3473 11.5039 73.3473 15.0059V15.9619H65.4089V16.1553C65.4089 17.7988 66.4509 18.9268 68.0514 18.9268C69.2009 18.9268 70.0817 18.3574 70.3718 17.4766ZM86.6449 9.48438L82.6918 21H79.1468L75.1615 9.48438H78.5238L80.9193 18.2285H80.9837L83.3685 9.48438H86.6449ZM99.3516 18.3145V21H89.3291V5.49902H92.5733V18.3145H99.3516ZM102.38 21V9.48438H105.516V21H102.38ZM103.948 8.2168C103.003 8.2168 102.272 7.49707 102.272 6.59473C102.272 5.68164 103.003 4.97266 103.948 4.97266C104.893 4.97266 105.624 5.68164 105.624 6.59473C105.624 7.49707 104.893 8.2168 103.948 8.2168ZM108.931 21V9.48438H111.96V11.5361H112.025C112.637 10.1074 113.851 9.26953 115.623 9.26953C118.18 9.26953 119.62 10.8809 119.62 13.5771V21H116.483V14.2324C116.483 12.7285 115.774 11.8691 114.367 11.8691C112.959 11.8691 112.068 12.9004 112.068 14.3936V21H108.931ZM126.182 14.1035L130.092 9.48438H133.648L129.254 14.4258L133.862 21H130.253L126.955 16.3164L126.139 17.1973V21H123.002V5.49902H126.139V14.1035H126.182Z" fill="#714EFF"/>
<path d="M139.458 21H136.353V5.49902H139.06L146.301 15.5967H146.386V5.49902H149.491V21H146.805L139.554 10.8486H139.458V21ZM158.298 11.5576C156.923 11.5576 155.935 12.5996 155.828 14.0391H160.715C160.651 12.5674 159.695 11.5576 158.298 11.5576ZM160.758 17.4766H163.637C163.293 19.7324 161.231 21.2471 158.384 21.2471C154.839 21.2471 152.712 18.9805 152.712 15.2959C152.712 11.6221 154.861 9.2373 158.266 9.2373C161.618 9.2373 163.734 11.5039 163.734 15.0059V15.9619H155.795V16.1553C155.795 17.7988 156.837 18.9268 158.438 18.9268C159.587 18.9268 160.468 18.3574 160.758 17.4766ZM166.483 12.8682C166.483 10.6768 168.384 9.2373 171.338 9.2373C174.228 9.2373 176.108 10.6982 176.151 12.9326H173.261C173.196 12.0088 172.455 11.4395 171.295 11.4395C170.21 11.4395 169.501 11.9336 169.501 12.6748C169.501 13.2441 169.995 13.6309 171.005 13.8672L173.207 14.3398C175.517 14.8555 176.451 15.7686 176.451 17.4873C176.451 19.7539 174.367 21.2471 171.327 21.2471C168.255 21.2471 166.364 19.7646 166.192 17.5195H169.254C169.404 18.4863 170.167 19.0449 171.413 19.0449C172.606 19.0449 173.325 18.5723 173.325 17.8203C173.325 17.2402 172.939 16.918 171.907 16.6709L169.78 16.1982C167.6 15.7041 166.483 14.5654 166.483 12.8682ZM180.178 6.83105H183.314V9.48438H185.441V11.8477H183.314V17.3584C183.314 18.2393 183.744 18.6582 184.668 18.6582C184.947 18.6582 185.237 18.6367 185.43 18.6045V20.9141C185.108 20.9893 184.571 21.043 183.937 21.043C181.23 21.043 180.178 20.1406 180.178 17.8955V11.8477H178.555V9.48438H180.178V6.83105Z" fill="#B9C0DA"/>
</svg>
